<svg xmlns="http://www.w3.org/2000/svg" version="1.1" xmlns:xlink="http://www.w3.org/1999/xlink" width="1000" height="1000"><metadata><rdf:RDF xmlns:rdf="http://www.w3.org/1999/02/22-rdf-syntax-ns#" xmlns:dc="http://purl.org/dc/elements/1.1/"><rdf:Description><dc:creator>RealFaviconGenerator</dc:creator><dc:source>https://realfavicongenerator.net</dc:source></rdf:Description></rdf:RDF></metadata><g clip-path="url(#SvgjsClipPath1649)"><rect width="1000" height="1000" fill="#ffffff"></rect><g transform="matrix(1.7391304347826086,0,0,1.7391304347826086,100,201.73913043478262)"><svg xmlns="http://www.w3.org/2000/svg" width="460" height="343" viewBox="0 0 460 343" fill="none"><path d="M315.965 215.659L316.172 215.695L299.727 187.632L306.423 214.002L306.601 214.033C297.972 212.623 289.052 211.405 279.857 210.43L279.901 210.434L261.652 146.246L266.311 209.189L266.343 209.191C255.582 208.36 236.489 207.786 236.489 207.786L229.831 108.833L223.576 207.831H223.692C213.993 207.959 204.08 208.392 193.968 209.167L194.085 209.156L198.082 146.245L180.121 210.433L180.212 210.425C171.606 211.339 162.866 212.508 154.002 213.954L154.125 213.932L160.007 187.632L143.991 215.695L144.226 215.654C98.8373 224.026 50.3453 239.755 0 265.981L2.55668 266.514C75.0239 236.579 266.635 189.16 459.863 267.811C459.863 267.811 404.513 231.94 315.964 215.66L315.965 215.659Z" fill="url(#paint0_linear_1_58)"></path><path d="M57.0407 234.757C38.5163 164.877 406.355 32.4886 321.911 2.99628C374.242 36.4505 25.0134 150.432 57.0407 234.758V234.757Z" fill="url(#paint1_linear_1_58)"></path><path d="M209.093 0.385582C181.966 3.05431 48.9954 24.7011 59.588 192.322L70.4033 179.078C67.2918 179.235 72.3943 28.4362 203.183 1.87451C170.512 12.2106 97.2579 65.1031 94.9496 155.405L105.545 148.066C105.545 148.066 112.562 30.484 213.874 0.0238121C212.527 -0.0558312 210.921 0.0643105 209.093 0.384233V0.385582Z" fill="#2C2829"></path><path d="M105.462 182.473L95.8607 190.032C95.8607 190.032 97.2403 209.291 100.882 217.512L109.215 215.25C109.215 215.25 104.58 192.681 105.462 182.472V182.473Z" fill="#2C2829"></path><path d="M371.455 248.524C350.151 295.446 301.629 335.558 241.669 342.884C342.982 336.924 381.222 250.842 381.222 250.842L371.456 248.524H371.455Z" fill="#2C2829"></path><path d="M351.34 244.724L341.849 243.18C330.895 292.996 280.486 333.074 251.062 340.87C302.181 331.067 341.079 273.594 351.34 244.724Z" fill="#2C2829"></path><path d="M116.745 243.18L108.303 245.213C143.895 333.448 217.23 342.885 217.23 342.885C143.894 327.159 116.745 243.181 116.745 243.181V243.18Z" fill="#2C2829"></path><path d="M88.107 248.524L78.0085 250.841C126.568 342.883 217.23 342.884 217.23 342.884C157.637 340.285 98.651 280.413 88.1057 248.524H88.107Z" fill="#2C2829"></path><path d="M365.043 155.406C365.587 145.805 356.104 107.013 356.104 107.013C346.04 78.0674 331.864 56.8243 317.026 41.2763C315.826 42.259 314.568 43.262 313.248 44.2865C350.95 89.4659 354.449 148.066 354.449 148.066C354.449 148.066 357.34 179.934 349.769 214.531L360.116 217.098C360.116 217.098 367.653 181.45 365.044 155.405L365.043 155.406Z" fill="#2C2829"></path><path d="M307.825 32.3981C276.869 4.90365 246.118 0.0251617 246.118 0.0251617C270.777 7.43873 289.849 20.0143 304.595 34.7996C305.719 33.9829 306.796 33.1824 307.826 32.3981H307.825Z" fill="#2C2829"></path><path d="M246.118 0.0251617C271.806 3.98168 296.946 14.1409 314.6 25.9767C316.224 24.4257 317.716 22.8693 319.147 21.2818C281.679 0.863441 246.118 0.0251617 246.118 0.0251617Z" fill="#2C2829"></path><path d="M331.169 28.4254C329.654 30.291 327.632 32.278 325.783 34.1273C390.269 84.9438 389.87 168.901 389.619 178.228L389.615 178.222C389.615 178.222 388.975 208.352 381.912 222.478L392.341 226.728C392.341 226.728 399.997 206.084 400.497 190.8C405.752 100.781 369.925 53.5549 331.171 28.4254H331.169Z" fill="#2C2829"></path><defs>
<linearGradient id="paint0_linear_1_58" x1="0.00134989" y1="188.322" x2="459.864" y2="188.322" gradientUnits="userSpaceOnUse">
<stop offset="0.36" stop-color="#C49C4D"></stop>
<stop offset="1" stop-color="#936927"></stop>
</linearGradient>
<linearGradient id="paint1_linear_1_58" x1="54.9606" y1="118.876" x2="334.526" y2="118.876" gradientUnits="userSpaceOnUse">
<stop stop-color="#D8AE52"></stop>
<stop offset="1" stop-color="#A37416"></stop>
</linearGradient>
<clipPath id="SvgjsClipPath1649"><rect width="1000" height="1000" x="0" y="0" rx="500" ry="500"></rect></clipPath></defs></svg></g></g></svg>