<svg width="154" height="108" viewBox="0 0 154 108" fill="none" xmlns="http://www.w3.org/2000/svg">
<g clip-path="url(#clip0_1_273)">
<path d="M99.1867 67.5574L99.2439 67.5675L94.6897 59.7957L96.544 67.0987L96.5933 67.1073C94.2038 66.7166 91.7334 66.3794 89.1868 66.1095L89.1992 66.1106L84.1452 48.3341L85.4353 65.7656L85.4443 65.7663C82.464 65.536 77.1764 65.3771 77.1764 65.3771L75.3327 37.9728L73.6003 65.3895H73.6324C70.9464 65.425 68.2009 65.545 65.4005 65.7596L65.433 65.7566L66.5399 48.3338L61.5656 66.1102L61.591 66.108C59.2074 66.3611 56.7872 66.6848 54.3322 67.0852L54.3662 67.0792L55.9954 59.7957L51.5598 67.5675L51.6248 67.5563C39.0548 69.8748 25.6254 74.2308 11.6826 81.4938L12.3907 81.6414C32.4599 73.3512 85.525 60.2189 139.038 82.0007C139.038 82.0007 123.709 72.0663 99.1863 67.5578L99.1867 67.5574Z" fill="white"/>
<path d="M27.4793 72.8463C22.3491 53.4937 124.219 16.8297 100.833 8.66199C115.326 17.9269 18.6096 49.4932 27.4793 72.8466V72.8463Z" fill="white"/>
<path d="M69.5888 7.93906C62.0762 8.67814 25.251 14.673 28.1845 61.0943L31.1797 57.4265C30.318 57.4699 31.7312 15.7075 67.9522 8.35141C58.9041 11.2139 38.6169 25.8621 37.9777 50.8705L40.9119 48.8379C40.9119 48.8379 42.8552 16.2746 70.913 7.83887C70.5399 7.81681 70.095 7.85009 69.5888 7.93869V7.93906Z" fill="white"/>
<path d="M40.8896 58.3665L38.2305 60.46C38.2305 60.46 38.6125 65.7935 39.6212 68.0702L41.9289 67.4437C41.9289 67.4437 40.6451 61.1934 40.8896 58.3661V58.3665Z" fill="white"/>
<path d="M114.554 76.6589C108.654 89.6536 95.216 100.762 78.6104 102.791C106.668 101.141 117.259 77.3008 117.259 77.3008L114.554 76.6589H114.554Z" fill="white"/>
<path d="M108.984 75.6066L106.356 75.179C103.322 88.9752 89.3615 100.074 81.2129 102.233C95.3698 99.5186 106.142 83.602 108.984 75.6066Z" fill="white"/>
<path d="M44.0148 75.179L41.6768 75.742C51.5338 100.178 71.8434 102.792 71.8434 102.792C51.5334 98.4363 44.0148 75.1793 44.0148 75.1793V75.179Z" fill="white"/>
<path d="M36.0838 76.6589L33.2871 77.3004C46.7353 102.791 71.8435 102.791 71.8435 102.791C55.3396 102.071 39.0039 85.4902 36.0834 76.6589H36.0838Z" fill="white"/>
<path d="M112.778 50.8711C112.929 48.212 110.302 37.4689 110.302 37.4689C107.515 29.4527 103.589 23.5696 99.48 19.2637C99.1476 19.5358 98.7992 19.8136 98.4336 20.0973C108.875 32.6094 109.844 48.8382 109.844 48.8382C109.844 48.8382 110.645 57.6638 108.548 67.2453L111.413 67.956C111.413 67.956 113.501 58.0836 112.778 50.8707L112.778 50.8711Z" fill="white"/>
<path d="M96.9321 16.8056C88.3592 9.19127 79.8428 7.84021 79.8428 7.84021C86.6721 9.89334 91.9537 13.376 96.0375 17.4707C96.3489 17.2445 96.6473 17.0229 96.9325 16.8056H96.9321Z" fill="white"/>
<path d="M79.8428 7.84021C86.957 8.93594 93.9194 11.7495 98.8084 15.0273C99.2582 14.5977 99.6713 14.1667 100.068 13.7271C89.6912 8.07237 79.8428 7.84021 79.8428 7.84021Z" fill="white"/>
<path d="M103.398 15.7048C102.978 16.2215 102.418 16.7718 101.906 17.2839C119.765 31.3572 119.655 54.6085 119.585 57.1914L119.584 57.1899C119.584 57.1899 119.407 65.534 117.451 69.4463L120.339 70.6231C120.339 70.6231 122.459 64.906 122.598 60.6733C124.053 35.743 114.131 22.6642 103.399 15.7048H103.398Z" fill="white"/>
</g>
<defs>
<clipPath id="clip0_1_273">
<rect width="153.125" height="107.625" fill="white"/>
</clipPath>
</defs>
</svg>
