<svg width="43" height="43" viewBox="0 0 43 43" fill="none" xmlns="http://www.w3.org/2000/svg">
<path d="M23.2915 19.7083V13.4375L27.2331 9.47788C28.6665 8.06246 28.9352 5.80496 27.9319 4.04913C27.5491 3.3678 26.9926 2.8 26.3192 2.40348C25.6457 2.00695 24.8792 1.79585 24.0977 1.79163C23.7215 1.79163 23.2915 1.84538 22.9511 1.95288C21.0161 2.47246 19.7081 4.26413 19.7081 6.27079V12.0758L14.0823 17.7554C12.6227 19.2459 11.6326 21.1319 11.2345 23.1797C10.8364 25.2274 11.0479 27.347 11.8427 29.2758C13.2223 32.68 16.2323 35.027 19.7081 35.6362V36.7291C19.7081 37.195 19.2961 37.625 18.8123 37.625H16.1248V41.2083H18.8123C21.2311 41.2083 23.2915 39.2195 23.2915 36.7291V35.8333C26.9286 35.8333 30.7448 32.3933 30.7448 27.3229C30.7448 23.202 27.3048 19.7083 23.2915 19.7083ZM23.2915 6.27079C23.2915 5.85871 23.4886 5.53621 23.8648 5.42871C24.259 5.32121 24.6711 5.48246 24.8681 5.84079C24.9695 6.01288 25.0104 6.21389 24.9845 6.41191C24.9585 6.60992 24.8671 6.79358 24.7248 6.93371L23.2915 8.47454V6.27079ZM19.7081 20.6041C17.9702 21.7508 16.6623 23.7216 16.1965 25.5491L19.7081 26.4808V31.9454C18.681 31.6699 17.7312 31.1613 16.9326 30.459C16.134 29.7567 15.5081 28.8797 15.1036 27.8962C14.0465 25.2804 14.6198 22.3062 16.5906 20.2995L19.7081 17.0208V20.6041ZM23.2915 32.25V23.1841C25.3877 23.1841 27.1973 25.155 27.1973 27.3229C27.1973 30.4583 24.9219 32.25 23.2915 32.25Z" fill="#C49C4D"/>
</svg>
